<svg width="40" height="40" viewBox="0 0 40 40" fill="none" xmlns="http://www.w3.org/2000/svg">
<rect width="40" height="40" rx="20" fill="#26272B"/>
<rect x="0.5" y="0.5" width="39" height="39" rx="19.5" stroke="white" stroke-opacity="0.06"/>
<path fill-rule="evenodd" clip-rule="evenodd" d="M19.9999 10.8008C16.1891 10.8008 13.0999 13.89 13.0999 17.7008C13.0999 19.8704 12.5781 21.9156 11.6539 23.7202C11.5312 23.9598 11.5274 24.2429 11.6436 24.4857C11.7598 24.7285 11.9827 24.9032 12.2462 24.9579C13.4741 25.2128 14.7235 25.4084 15.9913 25.5415C16.1761 27.5931 17.9002 29.2008 19.9999 29.2008C22.0996 29.2008 23.8237 27.5931 24.0085 25.5415C25.2763 25.4084 26.5257 25.2128 27.7535 24.9579C28.017 24.9032 28.2399 24.7285 28.3561 24.4857C28.4723 24.2429 28.4685 23.9598 28.3458 23.7202C27.4217 21.9156 26.8999 19.8704 26.8999 17.7008C26.8999 13.89 23.8106 10.8008 19.9999 10.8008ZM17.7566 25.6856C18.4989 25.7288 19.2469 25.7508 19.9999 25.7508C20.7529 25.7508 21.5009 25.7288 22.2432 25.6855C22.0113 26.7105 21.095 27.4758 19.9999 27.4758C18.9048 27.4758 17.9885 26.7105 17.7566 25.6856Z" fill="#9DA5B6"/>
</svg>
