<svg width="16" height="14" viewBox="0 0 16 14" fill="none" xmlns="http://www.w3.org/2000/svg">
<path fill-rule="evenodd" clip-rule="evenodd" d="M1.53846 0C0.688793 0 0 0.652918 0 1.45833V11.6667C0 12.9553 1.10207 14 2.46154 14H14.7692C13.4098 14 12.3077 12.9553 12.3077 11.6667V1.45833C12.3077 0.652918 11.6189 0 10.7692 0H1.53846ZM8 5.25C7.66013 5.25 7.38462 5.51117 7.38462 5.83333C7.38462 6.1555 7.66013 6.41667 8 6.41667H9.23077C9.57064 6.41667 9.84615 6.1555 9.84615 5.83333C9.84615 5.51117 9.57064 5.25 9.23077 5.25H8ZM7.38462 3.5C7.38462 3.17783 7.66013 2.91667 8 2.91667H9.23077C9.57064 2.91667 9.84615 3.17783 9.84615 3.5C9.84615 3.82217 9.57064 4.08333 9.23077 4.08333H8C7.66013 4.08333 7.38462 3.82217 7.38462 3.5ZM3.07692 7.58333C2.73706 7.58333 2.46154 7.8445 2.46154 8.16667C2.46154 8.48883 2.73706 8.75 3.07692 8.75H9.23077C9.57064 8.75 9.84615 8.48883 9.84615 8.16667C9.84615 7.8445 9.57064 7.58333 9.23077 7.58333H3.07692ZM2.46154 10.5C2.46154 10.1778 2.73706 9.91667 3.07692 9.91667H9.23077C9.57064 9.91667 9.84615 10.1778 9.84615 10.5C9.84615 10.8222 9.57064 11.0833 9.23077 11.0833H3.07692C2.73706 11.0833 2.46154 10.8222 2.46154 10.5ZM3.07692 2.91667C2.73706 2.91667 2.46154 3.17783 2.46154 3.5V5.83333C2.46154 6.1555 2.73706 6.41667 3.07692 6.41667H5.53846C5.87833 6.41667 6.15385 6.1555 6.15385 5.83333V3.5C6.15385 3.17783 5.87833 2.91667 5.53846 2.91667H3.07692Z" fill="white"/>
<path d="M13.5385 2.91667H15.0769C15.5867 2.91667 16 3.30842 16 3.79167V11.6667C16 12.311 15.449 12.8333 14.7692 12.8333C14.0895 12.8333 13.5385 12.311 13.5385 11.6667V2.91667Z" fill="white"/>
</svg>
