<svg width="100" height="76" viewBox="0 0 100 76" fill="none" xmlns="http://www.w3.org/2000/svg">
<path id="Union" fill-rule="evenodd" clip-rule="evenodd" d="M0 27.1429C0 21.1466 4.97461 16.2857 11.1111 16.2857H16.2757C19.9908 16.2857 23.46 14.4715 25.5207 11.451L30.0348 4.83468C32.0955 1.81424 35.5648 0 39.2798 0H60.7202C64.4352 0 67.9044 1.81424 69.9652 4.83468L74.4793 11.451C76.54 14.4715 80.0092 16.2857 83.7243 16.2857H88.8889C95.0254 16.2857 100 21.1466 100 27.1429V65.1429C100 71.1391 95.0254 76 88.8889 76H11.1111C4.97461 76 0 71.1391 0 65.1429V27.1429ZM74.9995 43.4305C74.9995 56.9221 63.8066 67.8591 49.9995 67.8591C36.1924 67.8591 24.9995 56.9221 24.9995 43.4305C24.9995 29.939 36.1924 19.002 49.9995 19.002C63.8066 19.002 74.9995 29.939 74.9995 43.4305ZM49.9997 59.712C59.2044 59.712 66.6663 52.4206 66.6663 43.4262C66.6663 34.4319 59.2044 27.1405 49.9997 27.1405C40.7949 27.1405 33.333 34.4319 33.333 43.4262C33.333 52.4206 40.7949 59.712 49.9997 59.712Z" fill="#7A7C85"/>
</svg>
