<svg width="18" height="16" viewBox="0 0 18 16" fill="none" xmlns="http://www.w3.org/2000/svg">
<path fill-rule="evenodd" clip-rule="evenodd" d="M0 1.25C0 0.835786 0.335786 0.5 0.75 0.5H17.25C17.6642 0.5 18 0.835786 18 1.25C18 1.66421 17.6642 2 17.25 2H0.75C0.335786 2 0 1.66421 0 1.25ZM0 5.75C0 5.33579 0.335786 5 0.75 5H17.25C17.6642 5 18 5.33579 18 5.75C18 6.16421 17.6642 6.5 17.25 6.5H0.75C0.335786 6.5 0 6.16421 0 5.75ZM0 10.25C0 9.83579 0.335786 9.5 0.75 9.5H17.25C17.6642 9.5 18 9.83579 18 10.25C18 10.6642 17.6642 11 17.25 11H0.75C0.335786 11 0 10.6642 0 10.25ZM0 14.75C0 14.3358 0.335786 14 0.75 14H17.25C17.6642 14 18 14.3358 18 14.75C18 15.1642 17.6642 15.5 17.25 15.5H0.75C0.335786 15.5 0 15.1642 0 14.75Z" fill="white"/>
</svg>
