<svg width="16" height="14" viewBox="0 0 16 14" fill="none" xmlns="http://www.w3.org/2000/svg">
<path id="Vector (Stroke)" fill-rule="evenodd" clip-rule="evenodd" d="M2.15979 0.458272C4.06172 0.15667 6.01251 0 8 0C9.98749 0 11.9383 0.15667 13.8402 0.458272C15.117 0.660739 16 1.76159 16 2.99765V7.50235C16 8.7384 15.117 9.83926 13.8402 10.0417C12.8021 10.2064 11.7494 10.3278 10.6841 10.4042C10.4355 10.422 10.2212 10.5615 10.1134 10.7656L8.59148 13.6465C8.47674 13.8637 8.24871 14 8 14C7.75129 14 7.52326 13.8637 7.40852 13.6465L5.88664 10.7656C5.77884 10.5615 5.56454 10.422 5.31591 10.4042C4.25061 10.3278 3.19791 10.2064 2.15978 10.0417C0.883007 9.83926 0 8.7384 0 7.50235V2.99765C0 1.76159 0.883011 0.660739 2.15979 0.458272Z" fill="#AFAFAF"/>
</svg>
