<svg width="16" height="14" viewBox="0 0 16 14" fill="none" xmlns="http://www.w3.org/2000/svg">
<g id="Vector">
<path d="M0 6.34375C0 5.73969 0.500099 5.25 1.117 5.25C1.73391 5.25 2.234 5.73969 2.234 6.34375V12.9062C2.234 13.5103 1.73391 14 1.117 14C0.500099 14 0 13.5103 0 12.9062V6.34375Z" fill="#AFAFAF"/>
<path d="M8.93602 1.75V0.612638C8.93602 0.378379 9.06089 0.152304 9.28894 0.0815115C9.45951 0.0285639 9.64116 0 9.82962 0C10.8167 0 11.6168 0.783502 11.6168 1.75C11.6168 2.62066 11.4545 3.45419 11.1578 4.22316C10.9754 4.69597 11.3062 5.25 11.8224 5.25H14.0742C15.1847 5.25 16.0947 6.13337 15.9921 7.21603C15.8195 9.03578 15.4099 10.7882 14.7936 12.4433C14.4347 13.4072 13.4686 14 12.4209 14H9.56887C9.15269 14 8.74222 13.9051 8.36998 13.7229L5.92765 12.5271C5.55541 12.3449 5.14494 12.25 4.72876 12.25H3.57441V6.125H4.43513C5.04673 6.125 5.55914 5.70279 5.8758 5.19044C6.31229 4.4842 6.99657 3.9412 7.81062 3.677C8.19736 3.55149 8.57341 3.33896 8.71484 2.96482C8.85788 2.58639 8.93602 2.17713 8.93602 1.75Z" fill="#AFAFAF"/>
</g>
</svg>
