<svg width="27" height="16" viewBox="0 0 27 16" fill="none" xmlns="http://www.w3.org/2000/svg">
<path d="M18.8921 0.0869141C16.7895 0.0869141 14.8847 0.917783 13.4717 2.26865C12.0587 0.917783 10.1539 0.0869141 8.05126 0.0869141C3.71039 0.0869141 0.189087 3.63083 0.189087 7.99996C0.189087 12.3691 3.71039 15.913 8.05126 15.913C10.1539 15.913 12.0587 15.0821 13.4717 13.7313C14.8847 15.0821 16.7895 15.913 18.8921 15.913C23.233 15.913 26.7543 12.3691 26.7543 7.99996C26.7543 3.63083 23.233 0.0869141 18.8921 0.0869141ZM18.7282 8.64996L14.116 13.3017C13.76 13.6578 13.1891 13.6578 12.833 13.3017L8.22083 8.64996C7.86474 8.29387 7.86474 7.7117 8.22083 7.35561L12.833 2.70387C13.1891 2.34778 13.76 2.34778 14.116 2.70387L18.7282 7.35561C19.0843 7.7117 19.0843 8.29387 18.7282 8.64996Z" fill="#FFDA00"/>
</svg>
