<svg width="260" height="260" viewBox="0 0 260 260" fill="none" xmlns="http://www.w3.org/2000/svg">
<g clip-path="url(#clip0_2678_4391)">
<path d="M260 130C260 58.1967 201.803 -2.54386e-06 130 -5.68248e-06C58.1967 -8.8211e-06 -2.54386e-06 58.1967 -5.68248e-06 130C-8.8211e-06 201.803 58.1966 260 130 260C201.803 260 260 201.803 260 130ZM91.9316 205.053C88.6816 205.053 85.67 203.32 84.045 200.503L45.9766 134.55C44.3516 131.733 44.3516 128.267 45.9766 125.428L84.045 59.475C85.67 56.6583 88.6817 54.925 91.9317 54.925L168.068 54.925C171.318 54.925 174.33 56.6583 175.955 59.475L214.023 125.428C215.648 128.245 215.648 131.712 214.023 134.55L175.955 200.503C174.33 203.32 171.318 205.053 168.068 205.053L91.9316 205.053Z" fill="#F8F8F9"/>
</g>
<defs>
<clipPath id="clip0_2678_4391">
<rect width="260" height="260" fill="white" transform="translate(260) rotate(90)"/>
</clipPath>
</defs>
</svg>
