<svg width="260" height="260" viewBox="0 0 260 260" fill="none" xmlns="http://www.w3.org/2000/svg">
<g clip-path="url(#clip0_2678_4388)">
<path d="M260 130C260 58.1967 201.803 -2.54386e-06 130 -5.68248e-06C58.1967 -8.8211e-06 -2.54386e-06 58.1967 -5.68248e-06 130C-8.8211e-06 201.803 58.1966 260 130 260C201.803 260 260 201.803 260 130ZM125.45 214.045L59.4967 175.977C56.68 174.352 54.9466 171.34 54.9466 168.09L54.9467 91.9533C54.9467 88.7033 56.68 85.6917 59.4967 84.0667L125.45 45.9983C128.267 44.3733 131.733 44.3733 134.572 45.9983L200.525 84.0667C203.342 85.6917 205.075 88.7033 205.075 91.9533L205.075 168.09C205.075 171.34 203.342 174.352 200.525 175.977L134.572 214.045C131.755 215.67 128.288 215.67 125.45 214.045Z" fill="#7AFB57"/>
</g>
<defs>
<clipPath id="clip0_2678_4388">
<rect width="260" height="260" fill="white" transform="translate(260) rotate(90)"/>
</clipPath>
</defs>
</svg>
