<svg width="16" height="16" viewBox="0 0 16 16" fill="none" xmlns="http://www.w3.org/2000/svg">
<path fill-rule="evenodd" clip-rule="evenodd" d="M5.95428 4.63517C8.14902 1.81559 11.5768 0.000163353 15.4285 5.10356e-10C15.5801 -6.4012e-06 15.7255 0.0601946 15.8326 0.167359C15.9398 0.274523 16 0.419872 16 0.571429C16 4.42334 14.1846 7.85143 11.3649 10.0464C11.4068 10.3107 11.4286 10.5816 11.4286 10.8571C11.4286 13.6975 9.12603 16 6.28571 16C5.97012 16 5.71428 15.7442 5.71428 15.4286V12.2807C5.70723 12.2756 5.70028 12.2704 5.69344 12.265C4.96809 11.6898 4.31085 11.0326 3.73571 10.3072C3.73011 10.3002 3.72469 10.293 3.71945 10.2857H0.571428C0.255837 10.2857 0 10.0299 0 9.71429C0 6.87396 2.30253 4.57143 5.14285 4.57143C5.41864 4.57143 5.68969 4.59319 5.95428 4.63517ZM10.2857 4C9.33893 4 8.57142 4.76751 8.57142 5.71429C8.57142 6.66106 9.33893 7.42857 10.2857 7.42857C11.2325 7.42857 12 6.66106 12 5.71429C12 4.76751 11.2325 4 10.2857 4Z" fill="white"/>
<path d="M2.86504 11.9938C3.118 11.8051 3.17008 11.447 2.98138 11.1941C2.79267 10.9411 2.43464 10.889 2.18168 11.0777C1.2054 11.806 0.571428 12.9719 0.571428 14.2857C0.571428 14.4956 0.587652 14.7021 0.619013 14.904C0.65721 15.1498 0.85009 15.3427 1.09594 15.3809C1.2978 15.4123 1.50434 15.4285 1.71428 15.4285C3.02806 15.4285 4.19391 14.7945 4.92221 13.8183C5.11091 13.5653 5.05882 13.2073 4.80586 13.0186C4.5529 12.8299 4.19486 12.8819 4.00616 13.1349C3.48429 13.8345 2.65205 14.2857 1.71428 14.2857C1.71428 13.3479 2.16547 12.5156 2.86504 11.9938Z" fill="white"/>
</svg>
