<svg width="24" height="24" viewBox="0 0 24 24" fill="none" xmlns="http://www.w3.org/2000/svg">
<g id="Lock">
<path id="Vector" d="M7.5 20C7.0875 20 6.7345 19.8509 6.441 19.5528C6.147 19.2541 6 18.8952 6 18.4762V10.8571C6 10.4381 6.147 10.0792 6.441 9.78057C6.7345 9.48241 7.0875 9.33333 7.5 9.33333H8.25V7.80952C8.25 6.75556 8.61575 5.85702 9.34725 5.1139C10.0783 4.3713 10.9625 4 12 4C13.0375 4 13.922 4.3713 14.6535 5.1139C15.3845 5.85702 15.75 6.75556 15.75 7.80952V9.33333H16.5C16.9125 9.33333 17.2658 9.48241 17.5598 9.78057C17.8533 10.0792 18 10.4381 18 10.8571V18.4762C18 18.8952 17.8533 19.2541 17.5598 19.5528C17.2658 19.8509 16.9125 20 16.5 20H7.5ZM9.75 9.33333H14.25V7.80952C14.25 7.1746 14.0312 6.63492 13.5938 6.19048C13.1563 5.74603 12.625 5.52381 12 5.52381C11.375 5.52381 10.8437 5.74603 10.4062 6.19048C9.96875 6.63492 9.75 7.1746 9.75 7.80952V9.33333ZM12 16.1905C12.4125 16.1905 12.7658 16.0414 13.0598 15.7432C13.3533 15.4446 13.5 15.0857 13.5 14.6667C13.5 14.2476 13.3533 13.8888 13.0598 13.5901C12.7658 13.2919 12.4125 13.1429 12 13.1429C11.5875 13.1429 11.2345 13.2919 10.941 13.5901C10.647 13.8888 10.5 14.2476 10.5 14.6667C10.5 15.0857 10.647 15.4446 10.941 15.7432C11.2345 16.0414 11.5875 16.1905 12 16.1905Z" fill="#F8F9FE"/>
</g>
</svg>
