<svg width="102" height="26" viewBox="0 0 102 26" fill="none" xmlns="http://www.w3.org/2000/svg">
<g clip-path="url(#clip0_2678_4336)">
<path d="M45.9074 11.8555C43.3074 10.7872 42.4765 10.499 42.4991 9.37419C42.4991 8.3455 43.3696 7.65028 44.3926 7.65028C45.9074 7.65028 46.1787 8.82028 46.303 9.52115H49.3609C49.2365 6.15245 46.5348 5.08984 44.4943 5.08984C42.0017 5.08984 39.4017 6.67245 39.4017 9.58332C39.4017 12.4942 42.0809 13.3985 43.2452 13.8111C45.3874 14.6533 46.4896 14.9811 46.4896 16.2755C46.4896 17.3438 45.5739 18.2877 44.3926 18.2877C43.7256 18.2877 42.3352 17.8977 42.2278 15.8459H39.153C39.1304 18.7794 40.9391 20.8538 44.4322 20.8538C47.9252 20.8538 49.5643 18.5759 49.5643 16.1342C49.5643 13.9807 48.253 12.8729 45.9074 11.8668V11.8555Z" fill="#7A7C85"/>
<path d="M56.9856 8.73047C53.47 8.73047 50.8926 11.5961 50.8926 14.8518C50.8926 18.1074 53.453 20.9109 57.0308 20.9109C58.2348 20.9109 59.3821 20.5774 60.3543 19.9105C61.3265 19.2605 62.1517 18.2996 62.7056 17.0279H59.8456C59.3143 17.9661 58.4043 18.5766 57.0534 18.5766C55.4652 18.5992 53.8148 17.5761 53.6904 15.7335H63.0448C63.2765 13.727 62.7508 11.9296 61.3321 10.4883C60.2526 9.38047 58.7265 8.73047 56.9913 8.73047H56.9856ZM53.7243 13.6422C53.8317 12.5118 54.9508 11.0479 57.0026 11.0479C59.0317 11.0253 60.1961 12.5513 60.3034 13.6422H53.7187H53.7243Z" fill="#7A7C85"/>
<path d="M67.7588 10.5883V9.08481H65.1362V20.5587H67.9114V14.3752C67.9114 12.3913 68.9062 11.4926 70.8562 11.4926H70.9806V8.73438C69.2228 8.75698 68.2732 9.5709 67.7645 10.5939L67.7588 10.5883Z" fill="#7A7C85"/>
<path d="M75.4456 5.08984H72.6704V7.53158H75.4456V5.08984Z" fill="#7A7C85"/>
<path d="M75.4456 9.08203H72.6704V20.5559H75.4456V9.08203Z" fill="#7A7C85"/>
<path d="M95.6805 5.08984H92.9053V20.5542H95.6805V5.08984Z" fill="#7A7C85"/>
<path d="M87.3772 9.07874V10.7518C86.8685 9.83048 85.5798 8.72266 83.4602 8.72266C80.1989 8.72266 77.5537 11.187 77.5537 14.8044C77.5537 18.0431 79.7354 20.9087 83.4602 20.9087C85.0881 20.9087 86.6368 20.2418 87.3772 18.9022V20.5527H90.1524V9.07874H87.3772ZM87.072 15.3018L83.6185 18.71C83.3528 18.97 82.9233 18.97 82.6576 18.71L79.2041 15.3018C78.9385 15.0418 78.9385 14.6122 79.2041 14.3522L82.6576 10.944C82.9233 10.684 83.3528 10.684 83.6185 10.944L87.072 14.3522C87.3376 14.6122 87.3376 15.0418 87.072 15.3018Z" fill="#7A7C85"/>
<path d="M25.0224 5.08594C22.9198 5.08594 21.015 5.91681 19.6019 7.26768C18.1889 5.91681 16.2841 5.08594 14.1815 5.08594C9.84064 5.08594 6.31934 8.62985 6.31934 12.999C6.31934 17.3681 9.84064 20.912 14.1815 20.912C16.2841 20.912 18.1889 20.0812 19.6019 18.7303C21.015 20.0812 22.9198 20.912 25.0224 20.912C29.3632 20.912 32.8846 17.3681 32.8846 12.999C32.8846 8.62985 29.3632 5.08594 25.0224 5.08594ZM24.8585 13.649L20.2463 18.3007C19.8902 18.6568 19.3193 18.6568 18.9632 18.3007L14.3511 13.649C13.995 13.2929 13.995 12.7107 14.3511 12.3546L18.9632 7.70289C19.3193 7.34681 19.8902 7.34681 20.2463 7.70289L24.8585 12.3546C25.2146 12.7107 25.2146 13.2929 24.8585 13.649Z" fill="#7A7C85"/>
</g>
<defs>
<clipPath id="clip0_2678_4336">
<rect width="101.739" height="26" fill="white" transform="translate(0.130371)"/>
</clipPath>
</defs>
</svg>
