<svg width="24" height="24" viewBox="0 0 24 24" fill="none" xmlns="http://www.w3.org/2000/svg">
<g id="Lock open right">
<path id="Vector" d="M10.9157 15.8314C11.3224 15.8314 11.6706 15.6866 11.9602 15.397C12.2498 15.1073 12.3946 14.7592 12.3946 14.3525C12.3946 13.9458 12.2498 13.5976 11.9602 13.308C11.6706 13.0184 11.3224 12.8735 10.9157 12.8735C10.509 12.8735 10.1608 13.0184 9.8712 13.308C9.58158 13.5976 9.43677 13.9458 9.43677 14.3525C9.43677 14.7592 9.58158 15.1073 9.8712 15.397C10.1608 15.6866 10.509 15.8314 10.9157 15.8314ZM6.47892 19.5287C6.07222 19.5287 5.72406 19.3839 5.43443 19.0943C5.14481 18.8046 5 18.4565 5 18.0498V10.6552C5 10.2485 5.14481 9.90029 5.43443 9.61067C5.72406 9.32104 6.07222 9.17623 6.47892 9.17623H11.6552V7.69731C11.6552 6.67439 12.0156 5.80244 12.7366 5.08146C13.4576 4.36049 14.3295 4 15.3525 4C16.2768 4 17.081 4.29887 17.765 4.8966C18.449 5.49433 18.8587 6.23071 18.9943 7.10574C19.019 7.26596 18.9635 7.4046 18.8279 7.52169C18.6924 7.63877 18.5198 7.69731 18.3103 7.69731C18.1008 7.69731 17.9283 7.65417 17.7927 7.5679C17.6571 7.48163 17.5585 7.3399 17.4969 7.14271C17.3613 6.67439 17.0994 6.28001 16.7112 5.95957C16.323 5.63914 15.8701 5.47892 15.3525 5.47892C14.7362 5.47892 14.2125 5.6946 13.7811 6.12595C13.3498 6.55731 13.1341 7.08109 13.1341 7.69731V9.17623H15.3525C15.7592 9.17623 16.1073 9.32104 16.397 9.61067C16.6866 9.90029 16.8314 10.2485 16.8314 10.6552V18.0498C16.8314 18.4565 16.6866 18.8046 16.397 19.0943C16.1073 19.3839 15.7592 19.5287 15.3525 19.5287H6.47892Z" fill="#7AFB57"/>
</g>
</svg>
