<svg width="260" height="260" viewBox="0 0 260 260" fill="none" xmlns="http://www.w3.org/2000/svg">
<g clip-path="url(#clip0_2678_4385)">
<path d="M260 130C260 58.1967 201.803 -2.54386e-06 130 -5.68248e-06C58.1967 -8.8211e-06 -2.54386e-06 58.1967 -5.68248e-06 130C-8.8211e-06 201.803 58.1966 260 130 260C201.803 260 260 201.803 260 130ZM78.8017 195.455C70.9367 195.455 64.545 189.063 64.545 181.198L64.545 78.8017C64.545 70.9367 70.9367 64.545 78.8017 64.545L181.198 64.545C189.063 64.545 195.455 70.9367 195.455 78.8017L195.455 181.198C195.455 189.063 189.063 195.455 181.198 195.455L78.8017 195.455Z" fill="#F8F8F9"/>
</g>
<defs>
<clipPath id="clip0_2678_4385">
<rect width="260" height="260" fill="white" transform="translate(260) rotate(90)"/>
</clipPath>
</defs>
</svg>
