<svg width="260" height="260" viewBox="0 0 260 260" fill="none" xmlns="http://www.w3.org/2000/svg">
<g clip-path="url(#clip0_2678_4394)">
<path d="M260 130C260 58.1967 201.803 -2.54386e-06 130 -5.68248e-06C58.1967 -8.8211e-06 -2.54386e-06 58.1967 -5.68248e-06 130C-8.8211e-06 201.803 58.1966 260 130 260C201.803 260 260 201.803 260 130ZM119.925 212.485L47.515 140.075C41.9466 134.507 41.9466 125.472 47.515 119.925L119.925 47.515C125.493 41.9467 134.528 41.9467 140.075 47.515L212.485 119.925C218.053 125.493 218.053 134.528 212.485 140.075L140.075 212.485C134.507 218.053 125.472 218.053 119.925 212.485Z" fill="#7AFB57"/>
</g>
<defs>
<clipPath id="clip0_2678_4394">
<rect width="260" height="260" fill="white" transform="translate(260) rotate(90)"/>
</clipPath>
</defs>
</svg>
