<svg width="20" height="20" viewBox="0 0 20 20" fill="none" xmlns="http://www.w3.org/2000/svg">
<path fill-rule="evenodd" clip-rule="evenodd" d="M11.7743 4.63203C13.7659 6.62371 13.7659 9.85282 11.7743 11.8445C9.78255 13.8362 6.5534 13.8362 4.56172 11.8445C2.57005 9.85282 2.57005 6.62371 4.56172 4.63203C6.5534 2.64036 9.78255 2.64036 11.7743 4.63203ZM14.3112 12.5429C16.3667 9.61689 16.0867 5.5504 13.4713 2.93498C10.5424 0.00604725 5.7936 0.00604725 2.86467 2.93498C-0.064265 5.86391 -0.064265 10.6126 2.86467 13.5416C5.52937 16.2063 9.70035 16.4467 12.6369 14.2627L17.2835 18.9095C17.7521 19.3781 18.5119 19.3781 18.9806 18.9095C19.4492 18.4408 19.4492 17.681 18.9806 17.2124L14.3112 12.5429Z" fill="#F8F9FE"/>
</svg>
