<svg width="40" height="40" viewBox="0 0 40 40" fill="none" xmlns="http://www.w3.org/2000/svg">
<rect width="40" height="40" rx="20" fill="#26272B"/>
<rect x="0.5" y="0.5" width="39" height="39" rx="19.5" stroke="white" stroke-opacity="0.06"/>
<path fill-rule="evenodd" clip-rule="evenodd" d="M21.7743 14.632C23.7659 16.6237 23.7659 19.8528 21.7743 21.8445C19.7825 23.8362 16.5534 23.8362 14.5617 21.8445C12.5701 19.8528 12.5701 16.6237 14.5617 14.632C16.5534 12.6404 19.7825 12.6404 21.7743 14.632ZM24.3112 22.5429C26.3667 19.6169 26.0867 15.5504 23.4713 12.935C20.5424 10.006 15.7936 10.006 12.8647 12.935C9.93573 15.8639 9.93573 20.6126 12.8647 23.5416C15.5294 26.2063 19.7003 26.4467 22.6369 24.2627L27.2835 28.9095C27.7521 29.3781 28.5119 29.3781 28.9806 28.9095C29.4492 28.4408 29.4492 27.681 28.9806 27.2124L24.3112 22.5429Z" fill="#9DA5B6"/>
</svg>
