<svg width="24" height="24" viewBox="0 0 24 24" fill="none" xmlns="http://www.w3.org/2000/svg">
<g id="Share" clip-path="url(#clip0_2526_1982)">
<path id="Vector" d="M16.1667 14.9511C15.5756 14.9511 15.0467 15.1844 14.6422 15.55L9.09667 12.3222C9.13556 12.1433 9.16667 11.9644 9.16667 11.7778C9.16667 11.5911 9.13556 11.4122 9.09667 11.2333L14.58 8.03667C15 8.42556 15.5522 8.66667 16.1667 8.66667C17.4578 8.66667 18.5 7.62444 18.5 6.33333C18.5 5.04222 17.4578 4 16.1667 4C14.8756 4 13.8333 5.04222 13.8333 6.33333C13.8333 6.52 13.8644 6.69889 13.9033 6.87778L8.42 10.0744C8 9.68556 7.44778 9.44444 6.83333 9.44444C5.54222 9.44444 4.5 10.4867 4.5 11.7778C4.5 13.0689 5.54222 14.1111 6.83333 14.1111C7.44778 14.1111 8 13.87 8.42 13.4811L13.9578 16.7167C13.9189 16.88 13.8956 17.0511 13.8956 17.2222C13.8956 18.4744 14.9144 19.4933 16.1667 19.4933C17.4189 19.4933 18.4378 18.4744 18.4378 17.2222C18.4378 15.97 17.4189 14.9511 16.1667 14.9511Z" fill="#AFAFAF"/>
</g>
<defs>
<clipPath id="clip0_2526_1982">
<rect width="24" height="24" fill="white"/>
</clipPath>
</defs>
</svg>
