<svg width="16" height="20" viewBox="0 0 16 20" fill="none" xmlns="http://www.w3.org/2000/svg">
<path d="M11.648 7.45L4.496 0L3.368 1.175L5.272 3.15833L1.152 7.45C0.68 7.94167 0.68 8.73333 1.152 9.21667L5.552 13.8C5.784 14.0417 6.096 14.1667 6.4 14.1667C6.704 14.1667 7.016 14.0417 7.248 13.8L11.648 9.21667C12.12 8.73333 12.12 7.94167 11.648 7.45ZM2.568 8.33333L6.4 4.34167L10.232 8.33333H2.568ZM13.6 9.58333C13.6 9.58333 12 11.3917 12 12.5C12 13.4167 12.72 14.1667 13.6 14.1667C14.48 14.1667 15.2 13.4167 15.2 12.5C15.2 11.3917 13.6 9.58333 13.6 9.58333ZM0 16.6667H16V20H0V16.6667Z" fill="#F8F9FE"/>
</svg>
