<svg width="19" height="12" viewBox="0 0 19 12" fill="none" xmlns="http://www.w3.org/2000/svg">
<path d="M0.15625 0.6875H1.875V5.59375H7.5V0.6875H9.21875V12H7.5V7.0625H1.875V12H0.15625V0.6875ZM10.975 10.75L14.8969 6.79688C15.3708 6.30729 15.7328 5.91146 15.9828 5.60938C16.2328 5.30208 16.4229 5.00521 16.5531 4.71875C16.6885 4.42708 16.7563 4.11979 16.7563 3.79688C16.7563 3.43229 16.6651 3.11198 16.4828 2.83594C16.3005 2.5599 16.0505 2.34635 15.7328 2.19531C15.4151 2.04427 15.0583 1.96875 14.6625 1.96875C14.2458 1.96875 13.8813 2.05208 13.5688 2.21875C13.2615 2.38542 13.0219 2.61979 12.85 2.92188C12.6833 3.21875 12.6 3.56771 12.6 3.96875H10.975C10.9698 3.29167 11.126 2.69271 11.4438 2.17188C11.7615 1.65104 12.2042 1.2474 12.7719 0.960938C13.3396 0.674479 13.9802 0.53125 14.6938 0.53125C15.4073 0.53125 16.0427 0.671875 16.6 0.953125C17.1625 1.22917 17.6 1.61198 17.9125 2.10156C18.2302 2.59115 18.3917 3.14062 18.3969 3.75C18.3917 4.18229 18.3083 4.59896 18.1469 5C17.9854 5.39583 17.7094 5.83854 17.3188 6.32812C16.9281 6.8125 16.376 7.40625 15.6625 8.10938L13.3656 10.4375V10.5312H18.5844V12H10.975V10.75Z" fill="#F8F9FE"/>
</svg>
