<svg width="20" height="6" viewBox="0 0 20 6" fill="none" xmlns="http://www.w3.org/2000/svg">
<path d="M17.5 5.5C16.9833 5.5 16.5167 5.35833 16.1 5.075C15.6833 4.79167 15.3833 4.43333 15.2 4H1C0.716667 4 0.479333 3.904 0.288 3.712C0.0960001 3.52067 0 3.28333 0 3C0 2.71667 0.0960001 2.479 0.288 2.287C0.479333 2.09567 0.716667 2 1 2H15.2C15.3833 1.56667 15.6833 1.20833 16.1 0.925C16.5167 0.641667 16.9833 0.5 17.5 0.5C18.2 0.5 18.7917 0.741667 19.275 1.225C19.7583 1.70833 20 2.3 20 3C20 3.7 19.7583 4.29167 19.275 4.775C18.7917 5.25833 18.2 5.5 17.5 5.5Z" fill="#F8F9FE"/>
</svg>
