<svg width="20" height="13" viewBox="0 0 20 13" fill="none" xmlns="http://www.w3.org/2000/svg">
<path d="M0.15625 0.6875H1.875V5.59375H7.5V0.6875H9.21875V12H7.5V7.0625H1.875V12H0.15625V0.6875ZM14.9906 12.1562C14.2198 12.1562 13.5271 12.026 12.9125 11.7656C12.3031 11.5052 11.8214 11.1406 11.4672 10.6719C11.1182 10.1979 10.9333 9.65625 10.9125 9.04688H12.6625C12.6833 9.36979 12.7953 9.65625 12.9984 9.90625C13.2068 10.151 13.4828 10.3411 13.8266 10.4766C14.1703 10.6068 14.5531 10.6719 14.975 10.6719C15.4281 10.6719 15.8318 10.5964 16.1859 10.4453C16.5453 10.2891 16.8266 10.0703 17.0297 9.78906C17.2328 9.50781 17.3344 9.1875 17.3344 8.82812C17.3344 8.45312 17.2328 8.1224 17.0297 7.83594C16.8318 7.54427 16.5401 7.31771 16.1547 7.15625C15.7693 6.98958 15.3135 6.90625 14.7875 6.90625H13.8188V5.5H14.7875C15.2146 5.5 15.5922 5.42708 15.9203 5.28125C16.2536 5.13021 16.5115 4.91927 16.6938 4.64844C16.8813 4.3776 16.975 4.0625 16.975 3.70312C16.975 3.35938 16.8943 3.05729 16.7328 2.79688C16.5714 2.53646 16.3422 2.33333 16.0453 2.1875C15.7484 2.04167 15.4021 1.96875 15.0063 1.96875C14.626 1.96875 14.2693 2.03646 13.9359 2.17188C13.6078 2.30729 13.3422 2.5026 13.1391 2.75781C12.9359 3.00781 12.8292 3.29688 12.8188 3.625H11.1625C11.1781 3.02604 11.3578 2.49219 11.7016 2.02344C12.0505 1.54948 12.5167 1.18229 13.1 0.921875C13.6833 0.661458 14.324 0.53125 15.0219 0.53125C15.7458 0.53125 16.3813 0.669271 16.9281 0.945312C17.475 1.22135 17.8969 1.59635 18.1938 2.07031C18.4906 2.53906 18.6365 3.05208 18.6313 3.60938C18.6365 4.24479 18.4594 4.78385 18.1 5.22656C17.7406 5.66927 17.251 5.96875 16.6313 6.125V6.20312C17.1417 6.27604 17.5792 6.4349 17.9438 6.67969C18.3135 6.91927 18.5922 7.22917 18.7797 7.60938C18.9724 7.98958 19.0688 8.41667 19.0688 8.89062C19.0688 9.51042 18.8917 10.0703 18.5375 10.5703C18.1885 11.0651 17.7016 11.4531 17.0766 11.7344C16.4568 12.0156 15.7615 12.1562 14.9906 12.1562Z" fill="#F8F9FE"/>
</svg>
