<svg width="14" height="16" viewBox="0 0 14 16" fill="none" xmlns="http://www.w3.org/2000/svg">
<path d="M1.5 16C1.08333 16 0.729334 15.854 0.438 15.562C0.146 15.2707 0 14.9167 0 14.5C0 14.0833 0.146 13.7293 0.438 13.438C0.729334 13.146 1.08333 13 1.5 13H3.375L7.375 3H5.5C5.08333 3 4.72933 2.854 4.438 2.562C4.146 2.27067 4 1.91667 4 1.5C4 1.08333 4.146 0.729334 4.438 0.438C4.72933 0.146 5.08333 0 5.5 0H12.5C12.9167 0 13.2707 0.146 13.562 0.438C13.854 0.729334 14 1.08333 14 1.5C14 1.91667 13.854 2.27067 13.562 2.562C13.2707 2.854 12.9167 3 12.5 3H10.625L6.625 13H8.5C8.91667 13 9.27067 13.146 9.562 13.438C9.854 13.7293 10 14.0833 10 14.5C10 14.9167 9.854 15.2707 9.562 15.562C9.27067 15.854 8.91667 16 8.5 16H1.5Z" fill="#F8F9FE"/>
</svg>
