<svg width="22" height="14" viewBox="0 0 22 14" fill="none" xmlns="http://www.w3.org/2000/svg">
<path fill-rule="evenodd" clip-rule="evenodd" d="M14.164 0.999493C14.3125 0.612791 14.7463 0.419642 15.133 0.568083L21.0742 2.84872C21.2599 2.92001 21.4097 3.06214 21.4906 3.24386C21.5715 3.42557 21.5769 3.63198 21.5057 3.81768L19.225 9.75895C19.0766 10.1457 18.6428 10.3388 18.2561 10.1904C17.8694 10.0419 17.6762 9.6081 17.8246 9.2214L19.4564 4.97053L18.3699 5.45428C15.9167 6.54652 14.0482 8.40732 12.9196 10.6278C12.8108 10.842 12.6059 10.991 12.3687 11.0287C12.1315 11.0664 11.8905 10.9882 11.7207 10.8183L7.94458 7.04223L1.72491 13.2619C1.43202 13.5548 0.957143 13.5548 0.66425 13.2619C0.371357 12.969 0.371357 12.4941 0.66425 12.2012L7.41425 5.45124C7.5549 5.31059 7.74567 5.23157 7.94458 5.23157C8.14349 5.23157 8.33426 5.31059 8.47491 5.45124L12.0809 9.05724C13.3815 6.93613 15.3156 5.17216 17.7598 4.08396L18.8463 3.60021L14.5954 1.96845C14.2087 1.82001 14.0156 1.38619 14.164 0.999493Z" fill="white"/>
</svg>
