<svg width="16" height="5" viewBox="0 0 16 5" fill="none" xmlns="http://www.w3.org/2000/svg">
<path id="Vector" d="M2.375 4.1875C1.92745 4.1875 1.49822 4.00971 1.18176 3.69324C0.86529 3.37677 0.6875 2.94755 0.6875 2.5C0.6875 2.05245 0.86529 1.62322 1.18176 1.30676C1.49822 0.990289 1.92745 0.812499 2.375 0.812499C2.82255 0.812499 3.25178 0.990289 3.56824 1.30676C3.88471 1.62322 4.0625 2.05245 4.0625 2.5C4.0625 2.94755 3.88471 3.37677 3.56824 3.69324C3.25178 4.00971 2.82255 4.1875 2.375 4.1875ZM8 4.1875C7.55245 4.1875 7.12322 4.00971 6.80676 3.69324C6.49029 3.37677 6.3125 2.94755 6.3125 2.5C6.3125 2.05245 6.49029 1.62322 6.80676 1.30676C7.12322 0.990289 7.55245 0.8125 8 0.8125C8.44755 0.8125 8.87678 0.990289 9.19324 1.30676C9.50971 1.62322 9.6875 2.05245 9.6875 2.5C9.6875 2.94755 9.50971 3.37678 9.19324 3.69324C8.87678 4.00971 8.44755 4.1875 8 4.1875ZM13.625 4.1875C13.1774 4.1875 12.7482 4.00971 12.4318 3.69324C12.1153 3.37678 11.9375 2.94755 11.9375 2.5C11.9375 2.05245 12.1153 1.62322 12.4318 1.30676C12.7482 0.990289 13.1774 0.8125 13.625 0.8125C14.0726 0.8125 14.5018 0.990289 14.8182 1.30676C15.1347 1.62322 15.3125 2.05245 15.3125 2.5C15.3125 2.94755 15.1347 3.37678 14.8182 3.69324C14.5018 4.00971 14.0726 4.1875 13.625 4.1875Z" fill="#7A7C85"/>
</svg>
