<svg width="16" height="12" viewBox="0 0 16 12" fill="none" xmlns="http://www.w3.org/2000/svg">
<path id="Vector" d="M8 0.54541C4.36364 0.54541 1.25818 2.80723 0 5.99996C1.25818 9.19268 4.36364 11.4545 8 11.4545C11.6364 11.4545 14.7418 9.19268 16 5.99996C14.7418 2.80723 11.6364 0.54541 8 0.54541ZM8 9.63632C5.99273 9.63632 4.36364 8.00723 4.36364 5.99996C4.36364 3.99268 5.99273 2.36359 8 2.36359C10.0073 2.36359 11.6364 3.99268 11.6364 5.99996C11.6364 8.00723 10.0073 9.63632 8 9.63632ZM8 3.81814C6.79273 3.81814 5.81818 4.79268 5.81818 5.99996C5.81818 7.20723 6.79273 8.18177 8 8.18177C9.20727 8.18177 10.1818 7.20723 10.1818 5.99996C10.1818 4.79268 9.20727 3.81814 8 3.81814Z" fill="#AFAFAF"/>
</svg>
