<svg width="40" height="40" viewBox="0 0 40 40" fill="none" xmlns="http://www.w3.org/2000/svg">
<rect width="40" height="40" rx="20" fill="#26272B"/>
<rect x="0.5" y="0.5" width="39" height="39" rx="19.5" stroke="white" stroke-opacity="0.06"/>
<path d="M14.6785 24.5734L16.1295 20.9458C16.3609 20.3674 16.7073 19.842 17.1478 19.4015L25.1049 11.445C26.0576 10.4923 27.6022 10.4923 28.5549 11.445C29.5076 12.3977 29.5076 13.9423 28.5549 14.895L20.5978 22.8515C20.1573 23.292 19.632 23.6385 19.0535 23.8698L15.4259 25.3209C14.9565 25.5086 14.4907 25.0428 14.6785 24.5734Z" fill="#9DA5B6"/>
<path d="M12.4555 15.1817C12.4555 14.3878 13.0991 13.7442 13.893 13.7442H19.9305C20.4068 13.7442 20.793 13.358 20.793 12.8817C20.793 12.4053 20.4068 12.0192 19.9305 12.0192H13.893C12.1464 12.0192 10.7305 13.4351 10.7305 15.1817V26.1067C10.7305 27.8533 12.1464 29.2692 13.893 29.2692H24.818C26.5646 29.2692 27.9805 27.8533 27.9805 26.1067V20.0692C27.9805 19.5928 27.5943 19.2067 27.118 19.2067C26.6416 19.2067 26.2555 19.5928 26.2555 20.0692V26.1067C26.2555 26.9006 25.6119 27.5442 24.818 27.5442H13.893C13.0991 27.5442 12.4555 26.9006 12.4555 26.1067V15.1817Z" fill="#9DA5B6"/>
</svg>
